<svg width="142" height="142" viewBox="0 0 142 142" fill="none" xmlns="http://www.w3.org/2000/svg">
<path d="M79.6479 107.494C79.5933 107.509 79.5469 107.545 79.5189 107.594C79.491 107.644 79.4837 107.702 79.4988 107.757C79.5139 107.811 79.55 107.858 79.5993 107.886C79.6485 107.914 79.7069 107.921 79.7615 107.906C81.5557 107.513 83.2378 106.719 84.6818 105.584C90.1701 101.53 89.8861 95.779 93.0101 90.5179C95.5093 86.5064 97.7032 86.9679 97.5328 86.4496C97.5265 86.4291 97.516 86.4102 97.502 86.3939C97.488 86.3776 97.4708 86.3644 97.4515 86.3551C97.4322 86.3458 97.4111 86.3405 97.3897 86.3397C97.3683 86.3389 97.3469 86.3424 97.3269 86.3502C87.5005 89.9641 93.0527 102.851 79.6479 107.494ZM119.415 94.8702C119.692 94.5791 119.969 94.2738 120.239 93.9685C122.326 91.4338 123.789 87.5075 123.647 84.6178C123.643 84.5867 123.631 84.5571 123.612 84.5324C123.592 84.5077 123.567 84.4888 123.537 84.4778C123.508 84.4668 123.476 84.4641 123.445 84.47C123.414 84.4759 123.386 84.4902 123.363 84.5113C123.15 84.7172 123.746 85.8532 122.248 89.4316C120.828 92.8254 119.585 93.6916 118.187 95.2749C116.934 96.7217 115.981 98.4035 115.385 100.222C114.789 102.041 114.561 103.96 114.715 105.868C114.723 105.908 114.745 105.944 114.776 105.97C114.808 105.996 114.848 106.01 114.889 106.01C114.93 106.01 114.969 105.996 115.001 105.97C115.033 105.944 115.055 105.908 115.063 105.868C115.014 103.837 115.374 101.816 116.122 99.9272C116.87 98.0378 117.989 96.3181 119.415 94.8702ZM57.077 64.2124C57.787 63.7225 57.7373 62.2244 57.077 61.6706C56.8903 61.5199 56.6726 61.4122 56.4396 61.3552C56.2065 61.2981 55.9637 61.2932 55.7285 61.3406C55.4932 61.3881 55.2714 61.4868 55.0786 61.6297C54.8859 61.7727 54.727 61.9563 54.6133 62.1676C54.4815 62.498 54.4578 62.8615 54.5455 63.2062C54.6332 63.5508 54.8279 63.8588 55.1016 64.086C55.3752 64.3131 55.7138 64.4477 56.0687 64.4704C56.4236 64.4931 56.7766 64.4028 57.077 64.2124ZM55.1245 62.5865C55.3375 61.7771 56.7362 61.6635 56.9492 62.4729C57.0912 63.0267 57.0273 63.4172 56.7433 63.6302C56.5726 63.7364 56.3785 63.799 56.1779 63.8126C55.9774 63.8262 55.7766 63.7904 55.5931 63.7083C55.401 63.6005 55.2505 63.4314 55.1656 63.2282C55.0806 63.0249 55.0662 62.799 55.1245 62.5865ZM81.3377 51.0774C81.3104 51.0755 81.283 51.0792 81.2573 51.0883C81.2315 51.0974 81.2079 51.1117 81.1879 51.1304C81.1679 51.149 81.1519 51.1716 81.1411 51.1967C81.1302 51.2218 81.1246 51.2489 81.1247 51.2762C81.1247 51.9862 79.9248 52.6962 79.7047 52.7672C79.6623 52.7776 79.6258 52.8043 79.6032 52.8416C79.5806 52.8789 79.5736 52.9237 79.584 52.966C79.5944 53.0084 79.6211 53.0449 79.6584 53.0676C79.6957 53.0902 79.7404 53.0971 79.7828 53.0867C81.6501 52.7033 81.9341 51.0632 81.3377 51.0774ZM78.8456 49.9911C78.7604 49.9414 78.3841 49.6645 78.2492 49.558C78.2492 49.4657 78.5829 48.28 78.6468 48.0528C78.7107 47.8256 78.4196 47.7688 78.3415 47.9534C78.0445 48.529 77.8066 49.1332 77.6315 49.7568C77.6883 49.9627 78.6752 50.2325 78.7462 50.2325C78.7758 50.2366 78.8059 50.2307 78.8317 50.2158C78.8576 50.2009 78.8778 50.1778 78.8892 50.1502C78.9005 50.1226 78.9024 50.092 78.8945 50.0632C78.8867 50.0345 78.8694 50.0091 78.8456 49.9911ZM76.5026 46.1855C76.4924 46.1242 76.4608 46.0684 76.4133 46.0282C76.3659 45.9879 76.3057 45.9659 76.2435 45.9659C76.1812 45.9659 76.1211 45.9879 76.0736 46.0282C76.0261 46.0684 75.9945 46.1242 75.9843 46.1855C75.9573 46.6751 75.9573 47.1657 75.9843 47.6552C76.0288 47.728 76.0963 47.7839 76.1761 47.814C76.2559 47.8441 76.3435 47.8467 76.425 47.8215C76.5064 47.7962 76.5772 47.7445 76.626 47.6745C76.6747 47.6046 76.6988 47.5203 76.6943 47.4351C76.596 47.0246 76.5318 46.6066 76.5026 46.1855ZM81.4655 47.428C81.3745 47.0209 81.3104 46.6082 81.2738 46.1926C81.2738 46.123 81.2461 46.0561 81.1969 46.0069C81.1476 45.9576 81.0808 45.9299 81.0111 45.9299C80.9414 45.9299 80.8746 45.9576 80.8254 46.0069C80.7761 46.0561 80.7484 46.123 80.7484 46.1926C80.7226 46.6656 80.7226 47.1396 80.7484 47.6126C80.7524 47.6676 80.7684 47.721 80.7953 47.7691C80.8222 47.8172 80.8593 47.8588 80.9041 47.891C80.9488 47.9232 81.0001 47.9451 81.0543 47.9553C81.1084 47.9655 81.1642 47.9636 81.2175 47.9499C81.2709 47.9361 81.3206 47.9109 81.3631 47.8758C81.4057 47.8407 81.44 47.7968 81.4636 47.747C81.4873 47.6972 81.4997 47.6428 81.5 47.5877C81.5003 47.5326 81.4886 47.4781 81.4655 47.428Z" fill="black"/>
<path d="M137.03 37.7578C136.98 33.3345 135.496 31.5879 130.917 31.7228C129.611 31.7228 106.315 31.9571 104.647 32.0139C103.528 32.0142 102.422 32.2438 101.395 32.6884C100.806 32.9227 97.7244 34.4634 97.3836 35.2799C97.0144 35.8621 97.4475 52.4477 97.3836 55.8699C96.8904 55.589 96.3832 55.3331 95.8642 55.1031C95.7704 54.6368 95.5714 54.198 95.2822 53.8202C94.9931 53.4425 94.6214 53.1357 94.1957 52.9234C93.5425 52.6678 92.7047 52.9731 92.2219 52.5116C91.7391 52.0501 92.6053 51.8016 92.6976 51.0916C92.6948 50.5993 92.6376 50.1088 92.5272 49.629C92.0993 47.0553 91.5016 44.5127 90.738 42.0178C90.099 39.9659 89.4316 38.2264 87.5927 37.1117C87.5927 33.6611 87.2448 13.4403 87.0531 12.3682C86.8641 11.3101 86.2998 10.3557 85.4638 9.68015C84.6278 9.00458 83.5762 8.65317 82.502 8.69043C82.431 8.69043 33.5688 8.69043 33.512 8.74723C31.5595 9.91163 31.0341 12.5102 30.9063 14.4272C30.8637 15.3857 31.7015 34.7403 32.0352 40.8889C28.5775 40.9599 11.1115 41.4285 10.1104 41.961C7.84554 42.5148 5.33924 44.091 4.84934 46.6541C4.54404 48.3013 5.16174 79.946 5.36764 81.4441C5.51509 83.0623 6.23811 84.5738 7.40534 85.7041C8.67624 86.8188 10.4086 87.0247 11.9351 87.0815L44.3324 86.4709C41.1658 93.6419 37.5164 103.809 35.1024 110.135C35.0911 110.153 35.0851 110.174 35.0851 110.196C35.0851 110.217 35.0911 110.238 35.1024 110.256C35.7558 110.898 36.469 111.475 37.2324 111.981C36.0751 115.936 36.2029 116.156 35.9473 116.476C33.7534 119.166 31.1051 120.736 28.4923 120.991C27.2782 121.126 26.0783 121.339 25.6523 122.518C25.3044 123.59 26.2274 124.307 27.3066 124.605C28.0166 124.797 32.8588 125.869 33.5759 125.954C34.2114 126.061 34.8633 125.915 35.3935 125.549C35.9047 125.173 37.5874 123.185 38.2335 122.589C37.062 128.269 36.2455 126.458 39.0358 127.672C39.0748 127.693 39.1179 127.705 39.162 127.707C39.2061 127.709 39.2501 127.701 39.2909 127.684C39.3316 127.667 39.3681 127.642 39.3977 127.609C39.4272 127.576 39.4492 127.537 39.4618 127.495C39.9588 126.075 43.3242 117.959 44.6945 115.851C45.0282 124.428 44.9714 123.98 45.0921 124.016C45.5678 124.136 46.0861 124.25 46.6186 124.357C46.6186 125.549 46.6541 126.771 46.7535 128.105C46.7535 128.148 46.6967 128.219 46.6399 128.333C44.8791 132.195 42.9053 133.771 40.7611 134.723C39.8097 135.149 38.4962 135.731 38.5317 137.044C38.5317 138.18 39.6961 138.542 40.825 138.5C42.5219 138.443 44.7158 138.216 45.7098 138.166C48.5498 137.996 48.6208 137.456 49.8278 135.021C50.1047 134.46 50.4313 133.792 50.6159 133.466C50.9496 137.456 50.5094 138.045 51.0561 138.017C52.54 137.939 53.1861 138.344 53.1861 137.811C53.2429 136.348 53.8961 130.597 54.2369 129.185C54.2369 129.021 54.1233 128.929 53.9529 128.893C54.1659 127.573 54.6629 124.974 54.7268 124.499C55.0818 124.449 55.4368 124.392 55.7137 124.328C55.7918 124.328 55.7137 124.704 56.9136 119.756C65.533 123.157 74.7275 123.973 82.9777 122.035C83.2688 123.164 85.3775 130.86 86.5277 134.233C86.9197 135.334 87.4417 136.386 88.0826 137.364C88.2459 137.52 88.5228 137.797 88.7926 137.797C89.0624 137.797 89.3606 137.421 89.4316 137.037C89.5026 136.654 88.3879 125.457 88.0116 121.417C89.6985 120.999 91.3343 120.397 92.8893 119.621L95.1897 127.26C95.2571 127.374 95.3584 127.464 95.4795 127.517C95.6006 127.57 95.7353 127.584 95.8647 127.557C95.9941 127.529 96.1116 127.462 96.2007 127.364C96.2897 127.267 96.3459 127.143 96.3612 127.012L96.1411 117.86C97.2161 117.159 98.2453 116.391 99.2225 115.56C99.6663 115.989 100.165 116.356 100.706 116.653C100.762 116.684 100.828 116.691 100.889 116.674C100.95 116.657 101.002 116.616 101.033 116.561C101.623 115.668 102.286 114.825 103.014 114.04C102.872 114.956 102.595 116.831 102.56 117.413C102.559 117.45 102.565 117.488 102.579 117.523C102.593 117.557 102.614 117.589 102.641 117.616C102.667 117.642 102.699 117.663 102.734 117.677C102.769 117.691 102.806 117.698 102.844 117.697C103.597 117.673 104.35 117.771 105.073 117.988C102.758 119.103 101.7 120.047 101.842 120.828C102.12 122.222 102.509 123.593 103.007 124.925C103.39 126.032 103.788 127.182 104.981 127.665C110.448 129.98 118.57 128.29 124.058 125.982C128.716 124.158 129.398 121.204 128.986 117.029C128.901 116.234 127.978 116.142 126.039 116.192L130.761 110.22C132.181 108.524 130.945 108.58 130.498 105.25C130.926 105.884 131.439 106.455 132.025 106.947C132.059 106.975 132.099 106.994 132.142 107.005C132.185 107.016 132.229 107.018 132.273 107.011C132.465 106.976 132.316 107.075 134.076 103.909C134.11 103.851 134.123 103.783 134.112 103.717C134.102 103.652 134.069 103.591 134.02 103.546C133.246 102.907 131.378 101.416 131.378 101.416C132.341 101.189 133.289 100.904 134.218 100.564C134.44 100.507 134.64 100.388 134.796 100.221C134.952 100.053 135.057 99.8451 135.099 99.6201C135.191 99.0663 135.198 87.9122 135.212 86.3928C135.212 86.1443 134.815 86.0733 134.772 86.3431C133.942 91.9734 130.129 96.6594 125.258 98.0581C125.414 97.4262 125.812 96.0559 125.592 95.6796C124.789 95.1742 123.934 94.7553 123.043 94.43C123.931 93.9259 125.982 92.6124 126.132 92.2077C126.224 91.9734 125.769 81.0181 125.748 79.8182C125.745 79.7688 125.726 79.7217 125.694 79.6838C125.662 79.6459 125.619 79.6191 125.57 79.6073C125.522 79.5954 125.472 79.5992 125.426 79.6179C125.38 79.6367 125.341 79.6696 125.315 79.7117C123.94 82.4262 121.907 84.7525 119.401 86.478C119.11 86.6768 117.015 87.7915 116.852 87.9406C116.326 88.4447 116.98 89.0624 117.257 89.4529C117.455 89.7227 118.137 90.6386 118.272 90.8303C115.773 91.1356 115.112 90.2765 114.985 90.8303C114.739 91.5536 114.408 92.2449 113.998 92.8893C114.144 93.5116 114.331 94.1236 114.559 94.7211C114.142 94.7896 113.718 94.7896 113.302 94.7211C113.228 94.7052 113.15 94.7175 113.085 94.7555C113.019 94.7936 112.97 94.8547 112.947 94.927C112.748 95.5731 112.592 96.1127 112.45 96.6168C111.589 95.1573 110.641 93.7512 109.61 92.4065C109.106 88.5583 107.288 84.064 103.447 83.4676C106.337 82.2606 108.232 79.1579 108.687 76.0126C110.05 76.0126 129.745 75.9558 130.541 76.0126C134.85 76.1333 136.774 74.4861 137.179 70.0912C137.342 68.3375 137.03 38.0773 137.03 37.7578ZM38.9861 122.29C39.004 122.215 38.9927 122.136 38.9545 122.069C38.9163 122.002 38.854 121.951 38.7802 121.928C38.2051 121.715 37.7649 122.219 37.4454 122.582C36.6366 123.566 35.7485 124.483 34.79 125.322C34.2575 125.578 28.0592 124.293 27.2853 124.051C26.8688 123.957 26.5064 123.702 26.2771 123.341C26.1875 123.079 26.1972 122.793 26.3046 122.538C26.4119 122.283 26.6094 122.076 26.8593 121.957C27.406 121.623 27.8107 121.651 29.3443 121.367C30.8779 121.083 32.3973 120.807 35.0669 118.293C35.4389 117.937 35.7852 117.555 36.1035 117.15C36.5468 118.136 37.293 118.954 38.2335 119.486C39.4936 120.045 40.9008 120.182 42.245 119.876C41.535 121.296 39.5754 125.734 39.0855 127.09C38.695 126.934 38.2974 126.792 37.9069 126.678C38.3467 125.236 38.707 123.772 38.9861 122.29ZM101.338 83.4108C100.34 83.4536 99.3478 83.5963 98.3776 83.8368C95.1975 84.1963 92.0001 84.3812 88.7997 84.3906C88.3311 81.5506 88.4731 82.076 88.3524 81.2879C88.3027 80.9471 88.2317 80.4785 88.4802 80.3294C91.8811 78.81 95.4169 77.4326 98.8036 75.9487C99.5136 76.467 99.5704 76.4031 99.6343 76.3605C99.6648 76.3277 99.6817 76.2846 99.6817 76.2398C99.6817 76.1951 99.6648 76.152 99.6343 76.1191C99.3572 75.8391 99.0657 75.5737 98.761 75.3239C96.0354 72.8864 94.1369 69.6603 93.3295 66.0939C93.3201 66.0516 93.2943 66.0147 93.2576 65.9914C93.221 65.9681 93.1767 65.9603 93.1343 65.9697C93.0919 65.9791 93.055 66.005 93.0317 66.0416C93.0084 66.0782 93.0006 66.1226 93.01 66.1649C93.6116 69.8737 95.5299 73.2414 98.4131 75.6505L88.6222 79.6975C88.3392 79.7806 88.0903 79.9523 87.9122 80.1874C87.4222 80.0542 86.9794 79.7861 86.6342 79.4135C84.7882 77.9296 84.0498 78.9449 81.6642 80.8335C81.4336 81.0075 81.2154 81.1973 81.011 81.4015C79.75 80.2799 78.4932 79.1534 77.2409 78.0219C76.9214 77.5533 74.0104 67.5139 72.8176 63.4811C73.7397 61.2455 75.2273 59.2881 77.1344 57.8011C77.3549 58.4746 77.6328 59.1278 77.9651 59.7536C78.4976 60.2648 79.1863 60.0163 79.8537 59.853C79.6698 60.2346 79.5638 60.649 79.5419 61.072C79.5199 61.495 79.5825 61.9182 79.7259 62.3167C80.2286 63.4437 81.0136 64.4219 82.005 65.1567C84.4332 67.2867 84.3125 67.2299 84.4545 67.2299C84.5201 67.2267 84.5822 67.1997 84.6292 67.1539C84.6763 67.1082 84.705 67.0469 84.7101 66.9814C84.9515 64.5035 85.7467 63.8219 87.9903 63.0338C89.2174 62.6333 90.2556 61.7979 90.9095 60.685C91.5633 59.5721 91.7877 58.2586 91.5403 56.9917C93.0243 57.003 94.5029 56.8119 95.9352 56.4237C96.0029 56.4085 96.0618 56.3671 96.099 56.3085C96.1363 56.25 96.1489 56.1791 96.134 56.1113C96.134 55.9906 96.0843 55.8486 96.0488 55.6995C106.408 60.7334 112.72 76.4173 104.363 82.2464C103.454 82.855 102.421 83.2529 101.338 83.4108ZM103.724 84.2202C105.549 84.6107 107.075 86.1443 108.069 88.8423C112.812 101.658 101.757 117.186 88.0329 120.792C87.9477 119.933 87.4791 114.949 87.3868 114.58C87.3188 114.254 87.1314 113.965 86.8614 113.77C85.9881 113.288 84.49 113.82 83.6948 114.289C82.9368 114.792 82.2593 115.407 81.6855 116.113C81.6855 116.341 82.6795 120.622 82.8925 121.495C74.2631 123.3 65.2936 122.53 57.0982 119.28C58.362 114.026 60.0376 106.834 60.5062 104.604C65.391 106.124 72.2567 105.982 72.3277 105.975C72.3505 105.969 72.3705 105.955 72.3849 105.937C72.3992 105.918 72.407 105.895 72.407 105.872C72.407 105.848 72.3992 105.825 72.3849 105.807C72.3705 105.788 72.3505 105.775 72.3277 105.769C68.3872 104.455 64.9863 101.069 62.7569 96.2263C59.3276 88.9914 52.2134 89.0766 49.4444 92.6763C45.44 97.8735 44.7939 112.997 44.73 114.821C44.4815 115.276 43.0544 118.066 42.5148 119.202C38.2548 120.217 37.0407 117.782 36.5224 116.738C36.4372 116.561 36.4798 117.029 37.8004 112.365C38.5104 112.713 43.5585 114.495 43.5656 113.969C43.6224 107.934 45.085 93.578 49.0468 90.2765C51.8868 87.9477 58.0283 88.3524 60.7476 90.3688C62.4764 91.9468 63.8906 93.838 64.9153 95.9423C67.1944 100.834 71.1207 104.462 75.4801 105.371C81.0678 104.881 87.5501 95.9778 89.4032 90.2836C92.8254 85.9455 98.4699 83.4605 103.724 84.2202ZM114.835 113.096C114.845 113.138 114.871 113.175 114.907 113.198C114.944 113.222 114.988 113.23 115.031 113.22C115.073 113.211 115.11 113.185 115.133 113.148C115.157 113.112 115.164 113.067 115.155 113.025C114.708 110.739 113.444 108.765 112.649 106.635C111.271 102.993 112.272 99.0805 113.437 95.3814C113.956 95.4785 114.493 95.4089 114.97 95.1826C115.361 94.8773 115.048 94.359 114.608 93.0526C114.97 92.5052 115.255 91.9103 115.453 91.2847C116.563 91.5473 117.717 91.5619 118.833 91.3273C118.876 91.3163 118.916 91.2951 118.95 91.2657C118.983 91.2362 119.01 91.1992 119.026 91.1576C119.043 91.1161 119.049 91.0713 119.045 91.0267C119.041 90.9822 119.027 90.9392 119.003 90.9013C118.527 90.2765 117.271 88.5654 117.207 88.4376C117.143 88.3098 117.207 88.324 117.413 88.2317C120.806 86.6873 123.589 84.0569 125.322 80.7554C125.407 83.0771 125.684 91.7178 125.606 92.0657C124.503 92.8642 123.34 93.5763 122.127 94.1957C122.074 94.225 122.031 94.2693 122.003 94.323C121.976 94.3767 121.964 94.4375 121.971 94.4976C121.978 94.5577 122.003 94.6144 122.042 94.6605C122.081 94.7066 122.133 94.7401 122.191 94.7566C123.196 95.1001 124.169 95.5276 125.102 96.0346C125.23 96.2405 124.783 97.8664 124.704 98.2853L123.994 98.4273C123.924 98.4458 123.863 98.4908 123.825 98.553C123.786 98.6151 123.773 98.6896 123.789 98.761C123.973 100.018 124.392 103.113 124.392 103.113C122.354 101.218 122.369 100.167 121.928 100.124C121.885 100.119 121.84 100.124 121.799 100.14C121.758 100.157 121.722 100.183 121.694 100.217C118.356 104.09 116.481 109.012 116.397 114.125C116.405 114.164 116.426 114.198 116.457 114.223C116.487 114.248 116.525 114.261 116.564 114.261C116.603 114.261 116.641 114.248 116.672 114.223C116.702 114.198 116.723 114.164 116.731 114.125C116.999 109.287 118.793 104.659 121.857 100.905C122.563 102.122 123.49 103.196 124.591 104.072C124.638 104.113 124.697 104.139 124.759 104.146C124.821 104.152 124.884 104.138 124.938 104.107C124.993 104.075 125.036 104.028 125.061 103.97C125.087 103.913 125.094 103.849 125.081 103.788C125.081 103.788 124.57 100.33 124.371 98.9243C129.206 98.0652 133.359 93.9543 134.758 88.7145C134.758 91.6326 134.659 98.8675 134.659 98.9385C134.659 99.4 134.659 99.8402 134.247 100.046C133.082 100.455 131.897 100.804 130.697 101.09C130.648 101.103 130.603 101.129 130.567 101.165C130.531 101.201 130.506 101.246 130.494 101.296C130.481 101.345 130.483 101.397 130.497 101.445C130.512 101.494 130.539 101.538 130.576 101.573C130.91 101.842 132.827 103.412 133.459 103.916C133.459 103.916 132.593 105.57 132.152 106.386C131.432 105.72 130.836 104.932 130.392 104.058C130.363 104.008 130.318 103.969 130.265 103.947C130.212 103.925 130.154 103.921 130.098 103.935C130.042 103.95 129.993 103.982 129.958 104.027C129.922 104.072 129.903 104.128 129.902 104.185C130.1 108.928 131.62 108.311 130.363 109.865C126.032 115.311 125.272 117.072 120.608 118.449C121.545 114.189 124.754 112.464 126.039 109.39C126.749 107.707 126.593 105.84 127.154 104.15C127.544 102.977 128.183 101.902 129.026 100.998C129.869 100.094 130.896 99.3818 132.039 98.9101C132.08 98.896 132.114 98.866 132.134 98.8267C132.153 98.7875 132.156 98.7421 132.142 98.7007C132.128 98.6593 132.098 98.6252 132.058 98.6058C132.019 98.5865 131.974 98.5836 131.932 98.5977C130.444 99.1227 129.131 100.051 128.14 101.278C127.148 102.505 126.517 103.984 126.316 105.549C126.011 107.728 126.075 108.8 124.712 110.71C123.206 112.805 120.743 114.658 119.947 118.627C118.713 118.934 117.449 119.11 116.177 119.152C116.028 117.881 115.247 117.136 114.693 117.107C114.182 116.213 108.793 108.012 106.805 106.216C109.004 102.26 110.014 97.7534 109.716 93.2372C110.568 94.4939 112.024 96.8511 112.279 97.3126C109.802 106.869 113.849 108.303 114.835 113.096ZM103.639 113.408C103.639 113.358 103.624 113.309 103.597 113.267C103.57 113.225 103.531 113.192 103.486 113.171C103.44 113.15 103.39 113.142 103.34 113.149C103.29 113.156 103.244 113.177 103.206 113.21C102.298 114.111 101.473 115.092 100.742 116.142C100.324 115.898 99.9314 115.612 99.5704 115.29C101.286 113.799 102.843 112.133 104.214 110.32C111.754 119.365 111.392 119.103 111.605 118.932C111.622 118.921 111.636 118.906 111.647 118.889C111.658 118.872 111.665 118.853 111.668 118.833C111.672 118.813 111.671 118.793 111.666 118.773C111.661 118.754 111.653 118.735 111.64 118.719C111.143 117.967 106.081 111.619 104.54 109.837C105.272 108.826 105.941 107.771 106.543 106.678C109.383 109.454 113.792 116.76 114.204 117.448C113.811 118.012 113.628 118.695 113.685 119.379C112.788 119.63 111.846 119.671 110.93 119.5C109.844 119.287 105.783 117.292 103.12 117.214C103.291 116.44 103.561 114.076 103.66 113.408H103.639ZM85.0509 114.31H85.1716C85.7254 114.182 86.5916 113.991 86.7975 114.551C86.904 114.935 89.0482 136.114 89.0482 136.767C89.0596 136.87 89.0484 136.974 89.0153 137.073C88.9822 137.171 88.928 137.26 88.8565 137.335C87.0105 136.625 82.4665 117.789 82.289 116.192C83.0046 115.306 83.9653 114.652 85.0509 114.31ZM9.45014 80.7838C9.45014 79.1579 8.37094 46.9239 8.47744 45.7595C8.66204 43.5656 9.45014 42.5787 11.1896 42.3515C13.0285 41.9965 30.1963 41.5066 32.0707 41.4569C32.1133 42.1669 32.1488 42.6639 32.163 42.7562C32.2417 43.3148 32.5082 43.83 32.9185 44.2171C33.3288 44.6042 33.8586 44.8402 34.4208 44.8862C34.4208 44.8152 33.9522 44.8862 48.6208 44.9359C48.6208 47.1511 48.7557 57.5597 48.7628 58.0496C44.588 58.2058 40.2854 58.3762 39.4618 58.4543C39.3482 58.4543 39.2488 58.6602 39.2914 58.7596C40.5268 61.8126 46.0293 74.2092 47.57 77.39C47.7137 77.7515 47.9607 78.0626 48.28 78.2846C48.4788 78.5828 48.7131 78.9165 48.99 79.2502C46.7393 81.0465 45.9299 83.0345 44.6235 85.9455C38.6098 86.0733 14.2355 86.5774 13.6888 86.5561C12.1694 86.4922 11.0973 86.052 10.4299 85.2142C9.41464 84.0072 9.45724 82.36 9.45014 80.7838ZM91.59 52.4264C91.7391 52.966 92.3 53.2571 93.1662 53.2784C94.6572 53.2145 95.2962 54.4996 95.566 55.9764C94.1146 56.2601 92.6423 56.424 91.164 56.4663C91.1212 56.4668 91.0792 56.4772 91.041 56.4966C91.0029 56.5161 90.9699 56.5441 90.9444 56.5785C90.919 56.6129 90.9018 56.6527 90.8943 56.6949C90.8869 56.737 90.8893 56.7803 90.9013 56.8213C91.128 57.6318 91.1302 58.4887 90.9076 59.3003C90.685 60.1119 90.246 60.8478 89.6375 61.4292C87.7276 63.2681 84.6675 62.2528 84.2202 66.4915C83.5812 65.9377 81.2169 63.9284 80.7341 63.3391C79.9034 62.3806 79.5697 60.7902 80.4217 59.7891C82.2462 59.491 84.09 59.3272 85.9384 59.2992C85.9799 59.2992 86.0196 59.2828 86.0489 59.2535C86.0782 59.2242 86.0946 59.1845 86.0946 59.143C86.0946 59.1016 86.0782 59.0619 86.0489 59.0326C86.0196 59.0033 85.9799 58.9868 85.9384 58.9868C83.8118 58.8361 81.6745 58.9891 79.591 59.4412C78.7958 59.6613 78.4053 59.8175 78.0503 59.072C77.8728 58.6957 76.8149 55.4723 76.6303 54.8759C76.3037 54.102 76.5025 54.3363 77.0989 53.9671C77.6833 54.461 78.3392 54.8631 79.0443 55.1599C79.0443 55.2451 79.4135 56.374 79.4703 56.5799C79.4944 56.7505 79.5798 56.9065 79.7104 57.0189C79.841 57.1312 80.0081 57.1922 80.1803 57.1905C81.836 57.3426 83.5042 57.1002 85.0481 56.4832C86.592 55.8661 87.9677 54.8919 89.0624 53.6405C89.0842 53.6108 89.0941 53.574 89.0903 53.5373C89.0865 53.5006 89.0693 53.4667 89.0419 53.442C89.0146 53.4173 88.9791 53.4036 88.9422 53.4035C88.9053 53.4035 88.8697 53.4171 88.8423 53.4417C87.7427 54.5532 86.4216 55.4209 84.9647 55.9884C83.5079 56.556 81.9479 56.8108 80.3862 56.7361C79.8892 56.7006 79.9531 56.8071 79.5342 55.3161C81.4512 55.8557 81.934 55.1244 81.2524 55.7989C81.2302 55.8255 81.2179 55.8589 81.2177 55.8935C81.2174 55.9282 81.2292 55.9618 81.2511 55.9887C81.2729 56.0155 81.3034 56.0339 81.3373 56.0408C81.3712 56.0476 81.4065 56.0425 81.437 56.0261C84.0196 54.0952 85.9037 51.3763 86.8046 48.28C86.8112 48.26 86.8136 48.2389 86.8117 48.2179C86.8098 48.1969 86.8037 48.1765 86.7938 48.1579C86.7838 48.1393 86.7702 48.123 86.7538 48.1098C86.7374 48.0966 86.7184 48.0869 86.6981 48.0812C86.3289 47.9534 86.5774 48.6847 84.845 51.5176C84.135 48.6776 84.6107 45.6743 83.8439 42.8201C83.8336 42.7797 83.8076 42.7449 83.7716 42.7236C83.7357 42.7023 83.6927 42.6962 83.6522 42.7065C83.6117 42.7169 83.577 42.7429 83.5557 42.7789C83.5344 42.8148 83.5283 42.8577 83.5386 42.8982C83.663 43.5022 83.7437 44.1144 83.78 44.73C82.2677 43.2319 79.0727 40.8392 76.5522 41.3859C76.0092 41.4027 75.4946 41.6326 75.1199 42.0259C74.7452 42.4192 74.5404 42.9444 74.55 43.4875C73.9394 42.6639 74.3654 41.4072 74.9192 40.7114C76.3818 38.8015 78.9804 37.8714 81.5719 37.1614C83.8652 36.5508 86.9324 36.636 88.6719 38.7092C89.4265 39.7439 89.9716 40.9161 90.2765 42.1598C91.1834 44.9627 91.816 47.847 92.1651 50.7721C92.1922 50.8901 92.1867 51.0132 92.1491 51.1282C92.1116 51.2433 92.0435 51.346 91.9521 51.4253C91.8104 51.5467 91.7025 51.7027 91.6391 51.8781C91.5756 52.0536 91.5587 52.2425 91.59 52.4264ZM48.0883 77.2196C47.4209 75.7996 40.825 61.1736 39.7742 58.7596C42.1243 58.7596 68.6428 57.7869 69.1043 57.7727C70.006 60.6695 75.26 78.1639 75.26 78.313C75.26 78.313 68.9836 78.4692 65.5969 78.6041C59.8814 75.7215 54.5919 76.0339 50.7437 78.0716C48.5711 77.9793 48.4717 78.0219 48.0883 77.2196ZM75.0683 47.7688C74.9689 45.6388 75.0683 44.1549 75.402 44.0058C76.6232 43.452 78.9023 43.2958 81.437 44.0981C81.7565 44.2046 82.7789 44.7371 83.8084 45.1702C83.922 47.4422 83.8084 49.8491 84.5184 52.0501C83.8908 53.1507 83.0846 54.1392 82.1328 54.9753C77.8373 55.5433 75.26 52.1069 75.0541 47.7688H75.0683ZM81.5861 90.2268C81.4157 90.5534 84.3054 92.726 84.6178 92.9603C85.6402 93.9259 84.3906 94.4513 83.354 93.5212C77.674 88.4163 72.8318 82.5659 66.5199 79.0727C70.1977 78.952 74.7488 78.8171 75.5298 78.81C76.3179 79.5697 85.4698 88.1394 87.8341 90.17C81.2311 90.2197 81.65 90.1132 81.5719 90.2268H81.5861ZM88.5583 90.1274C88.4873 90.0635 76.4883 79.2218 76.0268 78.6822C75.757 78.2278 70.7799 61.3369 69.6368 57.936C70.3381 58.4143 70.8583 59.1145 71.1136 59.924C71.5396 61.1381 76.3747 77.3261 76.396 77.4042C76.454 77.7974 76.6298 78.1638 76.9001 78.455C78.7674 80.2513 86.691 87.4365 89.2683 89.5665C89.1192 89.7511 88.9701 89.9357 88.8281 90.1274H88.5583ZM88.04 83.3043C86.8046 83.2049 86.4141 83.0629 86.1088 83.4392C86.0094 83.5954 85.7254 83.9433 85.3633 83.8652C85.3005 83.8506 85.2414 83.8232 85.1897 83.7846C85.138 83.7461 85.0949 83.6974 85.0629 83.6414C85.0309 83.5854 85.0108 83.5234 85.0038 83.4593C84.9969 83.3952 85.0033 83.3304 85.0225 83.2688C85.3704 82.9422 85.7325 82.6582 86.0591 82.3103C86.0766 82.2858 86.0853 82.2561 86.084 82.226C86.0826 82.196 86.0713 82.1672 86.0517 82.1443C86.0321 82.1215 86.0054 82.1058 85.9758 82.0999C85.9463 82.0939 85.9157 82.098 85.8887 82.1115C85.5266 82.3458 85.1787 82.7221 84.7669 82.9706C84.7329 82.9711 84.6995 82.979 84.6688 82.9937C84.6382 83.0084 84.6111 83.0296 84.5894 83.0558C84.5044 83.0904 84.4125 83.1048 84.321 83.0979C84.2294 83.0911 84.1407 83.0633 84.0617 83.0166C83.9827 82.9698 83.9155 82.9055 83.8654 82.8286C83.8153 82.7517 83.7837 82.6642 83.7729 82.573C83.7729 82.005 84.3835 81.6287 84.7385 81.2098C84.8805 81.0678 84.6675 80.8548 84.5184 80.9897C84.138 81.3109 83.7843 81.6623 83.4605 82.0405C83.0514 82.1706 82.6339 82.2726 82.2109 82.3458C82.0192 82.3458 82.2109 82.4665 81.3731 81.7494C82.2466 80.9301 83.1978 80.1977 84.2131 79.5626C85.9384 78.4266 86.2579 80.3933 87.8128 80.6205C87.8114 81.52 87.8874 82.4179 88.04 83.3043ZM89.6375 89.1547L82.4878 82.7647C82.7471 82.7136 83.0032 82.6472 83.2546 82.5659C83.2489 82.7201 83.2791 82.8735 83.3429 83.014C83.4067 83.1544 83.5023 83.2781 83.6221 83.3752C83.742 83.4724 83.8828 83.5403 84.0335 83.5736C84.1841 83.6068 84.3404 83.6046 84.49 83.567C84.5184 83.7176 84.582 83.8594 84.6756 83.9807C84.7692 84.1021 84.8901 84.1996 85.0285 84.2654C85.167 84.3311 85.3189 84.3632 85.4721 84.3591C85.6253 84.3549 85.7754 84.3147 85.91 84.2415C86.8898 83.7942 85.91 83.6238 87.4933 83.7658C87.6992 83.7658 87.9193 83.8084 88.1323 83.8155C88.1962 84.1492 88.2601 84.4545 88.3311 84.7456C88.3482 84.8037 88.3838 84.8546 88.4325 84.8905C88.4813 84.9264 88.5404 84.9453 88.6009 84.9444C101.296 84.6746 95.0619 82.9209 89.6233 89.1547H89.6375ZM72.5975 62.7143C71.7952 60.0234 71.3763 57.8508 69.7575 57.297C69.7575 57.3822 70.361 57.2047 49.345 58.007C49.345 54.5493 49.1959 46.1855 49.1746 44.9146H74.6281C74.4293 47.9889 74.6281 51.3046 76.7581 53.5908C76.5025 53.6902 76.0481 53.9032 75.9416 54.0807C76.2035 55.2283 76.5548 56.3535 76.9924 57.4461C75.0875 58.7905 73.5635 60.6055 72.5691 62.7143H72.5975ZM69.6794 40.7682C69.6794 39.7742 69.4522 34.4279 69.4025 33.4481H71.213C71.213 34.4563 71.3479 39.7813 71.3905 40.7611C70.8225 40.7469 70.2474 40.754 69.6794 40.7682ZM59.2779 40.9812C59.285 39.05 59.0365 22.72 59.001 20.59H60.8115C60.8115 25.986 60.9677 39.4831 60.9961 40.9528L59.2779 40.9812ZM48.0741 23.3306H49.8917C49.8917 27.9953 50.0408 39.7742 50.0763 41.1729H48.3581C48.3652 39.4263 48.1167 25.276 48.0741 23.3306ZM32.66 42.4438C32.5606 41.8403 31.737 22.933 31.4033 15.691C31.3252 13.4616 31.9145 10.721 33.4126 9.45013C33.4126 14.4201 34.0516 41.8474 34.1936 44.3324C33.7758 44.2119 33.4048 43.9662 33.1307 43.6286C32.8565 43.291 32.6923 42.8776 32.66 42.4438ZM97.8025 36.5437C97.7441 36.0803 97.8551 35.6113 98.1149 35.2231C98.6707 34.7855 99.2675 34.4027 99.897 34.08C99.187 35.358 99.3716 35.003 99.7479 57.439C99.1623 56.9927 98.5532 56.5779 97.9232 56.1965C97.8522 52.6181 97.8167 39.6109 97.8238 36.5437H97.8025ZM104.008 44.4318C104.338 43.9635 104.776 43.5821 105.286 43.3199C105.795 43.0578 106.36 42.9229 106.933 42.9266C109.823 42.9266 110.874 46.363 111.442 49.1604C111.939 51.3543 111.974 53.9387 113.572 55.7279C120.998 62.4587 121.559 53.0654 126.075 53.4275C127.495 53.5908 128.439 54.8901 129.454 55.8273C129.888 56.3148 130.497 56.6114 131.149 56.6526C131.8 56.6938 132.441 56.4763 132.933 56.0474V66.1365C131.187 66.1365 109.006 65.9732 106.571 66.0016C105.978 64.7607 105.28 63.573 104.484 62.4516C104.569 61.5925 104.043 45.1986 104.029 44.4318H104.008ZM106.848 66.4844C110.114 66.5341 130.839 66.5909 132.99 66.5909C132.993 66.8614 133.01 67.1315 133.04 67.4003C133.045 67.4575 133.071 67.5108 133.113 67.5501C133.155 67.5893 133.21 67.6118 133.267 67.6133C133.686 67.6133 133.494 68.2594 133.423 49.0042C133.423 48.9572 133.405 48.912 133.371 48.8787C133.338 48.8454 133.293 48.8267 133.246 48.8267C133.199 48.8267 133.154 48.8454 133.12 48.8787C133.087 48.912 133.068 48.9572 133.068 49.0042C133.068 50.268 132.99 54.4428 132.983 55.2664C132.82 55.5231 132.599 55.7375 132.337 55.892C132.075 56.0466 131.78 56.1369 131.477 56.1556C131.174 56.1743 130.87 56.1209 130.591 55.9996C130.313 55.8784 130.066 55.6928 129.873 55.4581C127.821 53.3281 125.791 51.5531 122.823 54.2937C120.395 56.8 119.06 58.9158 115.723 56.7503C114.372 56.0304 113.353 54.8134 112.883 53.3565C111.761 49.3308 112.074 43.1183 107.331 42.2947C106.697 42.2299 106.056 42.3216 105.466 42.5617C104.875 42.8019 104.353 43.1831 103.944 43.6721C103.944 42.5929 103.866 41.5421 103.823 40.4487C103.823 40.4035 103.805 40.3602 103.773 40.3282C103.741 40.2963 103.698 40.2783 103.653 40.2783C103.608 40.2783 103.564 40.2963 103.532 40.3282C103.5 40.3602 103.483 40.4035 103.483 40.4487C103.483 41.6273 103.852 58.0851 103.965 61.699C102.871 60.2672 101.613 58.9685 100.217 57.8295C100.217 55.1244 99.9751 37.559 99.9467 36.4727C99.9041 34.4989 100.692 33.3558 102.51 32.8801C104.001 32.4683 130.81 32.0565 133.359 32.4044C135.049 32.6174 136.015 34.2717 136.256 35.7059C136.554 37.488 136.64 66.9459 136.647 67.3364C136.703 70.8154 136.292 74.7843 132.671 75.2742C131.854 75.3878 111.655 75.4375 108.722 75.4091C108.813 72.3293 108.176 69.2716 106.862 66.4844H106.848ZM86.0591 11.218C86.9111 12.709 86.4283 12.2972 87.0318 36.8206C84.0924 35.4929 79.9318 36.7141 77.0918 38.2406V17.2033C77.0918 17.04 77.461 17.0897 74.9618 17.0897C74.8056 17.0897 74.8198 15.6271 75.3452 39.4192C74.9192 39.8038 74.5488 40.2459 74.2447 40.7327H71.8591C71.8591 39.8097 71.5893 33.2635 71.5609 33.2067C71.5527 33.1698 71.532 33.1369 71.5022 33.1136C71.4724 33.0903 71.4354 33.078 71.3976 33.0789C70.6305 33.0532 69.8625 33.0698 69.0972 33.1286C69.0745 33.1441 69.0566 33.1656 69.0453 33.1906C69.034 33.2157 69.0299 33.2434 69.0333 33.2706C69.0333 33.9806 69.1611 39.7458 69.2108 40.7682L66.5341 40.825C66.669 28.6982 66.7187 29.3372 66.5341 29.323C64.61 29.4011 64.5674 29.3656 64.5674 29.5076V40.8676L61.4434 40.9315C61.4434 39.3482 61.202 21.4562 61.1523 20.4196C61.1544 20.3729 61.1388 20.3272 61.1084 20.2916C61.0781 20.256 61.0355 20.2333 60.989 20.2279C60.989 20.2279 58.7667 20.2279 58.6957 20.2989C58.4898 20.4622 58.8093 40.1789 58.8093 40.9883L55.4368 41.0522V30.4519C55.4117 30.442 55.3838 30.442 55.3587 30.4519C53.3991 30.4519 53.4204 30.4519 53.4204 30.6081V41.0948L50.5378 41.18C50.339 22.8478 50.1757 23.1815 50.2467 23.1815C50.247 23.1361 50.2305 23.0921 50.2004 23.058C50.1703 23.0239 50.1286 23.0022 50.0834 22.9969C50.0834 22.9969 47.8753 22.9969 47.8043 23.0537C47.5629 23.2028 47.9037 39.973 47.9037 41.2368L43.9987 41.3078C44.02 13.6391 44.0981 14.91 43.9135 14.91L42.174 14.9739C42.0533 14.9739 42.0959 13.277 42.0959 41.3362C39.1707 41.393 39.2559 41.3362 39.2133 41.4498C39.1997 41.472 39.1921 41.4973 39.1912 41.5233C39.1904 41.5493 39.1964 41.575 39.2086 41.598C39.2208 41.621 39.2388 41.6404 39.2608 41.6542C39.2828 41.6681 39.3081 41.6759 39.334 41.677C43.6437 41.677 69.7433 41.4143 73.9962 41.2865C73.5702 42.3728 73.6483 43.5727 74.6352 44.2046V44.3608C70.5314 44.4815 35.4148 44.3608 34.7829 44.3608C34.7829 43.4307 33.9877 10.9482 33.9806 9.13063C38.9009 9.13063 82.2606 9.19453 83.3895 9.37913C83.9429 9.46877 84.4695 9.68024 84.9312 9.99826C85.3929 10.3163 85.7781 10.7329 86.0591 11.218ZM8.66914 43.097C7.85264 44.2756 7.81004 45.8092 7.81004 47.2931C7.81004 47.6197 8.80404 82.5659 8.95314 83.4179C9.03805 84.0363 9.25433 84.6293 9.58742 85.1571C9.92052 85.6849 10.3627 86.1353 10.8843 86.478C10.0498 86.436 9.23391 86.2157 8.49164 85.8319C6.91544 84.9657 6.31904 83.1836 6.10604 82.1967C5.72974 80.4217 5.23274 49.9343 5.31794 48.3581C5.26824 45.7453 6.15574 44.3324 8.65494 43.097H8.66914ZM115.169 123.391C118.011 123.193 120.795 122.491 123.391 121.318C125.237 120.466 127.537 119.117 128.489 118.045C128.638 121.396 127.956 123.561 124.513 125.145C119.955 127.275 109.141 129.887 104.469 126.771C104.051 126.366 103.049 123.292 102.652 121.872C104.69 123.228 110.625 123.753 115.155 123.391H115.169ZM50.9567 132.692C50.3603 132.642 50.0763 133.239 49.8775 133.672C48.2161 137.222 48.2374 137.449 46.5476 137.563C46.0151 137.598 41.0025 138.01 40.6333 138.01C39.3411 138.102 38.624 137.215 39.5399 136.128C40.0621 135.735 40.6415 135.423 41.2581 135.205C43.2319 134.289 46.3559 131.868 47.0446 128.872C47.7573 129.709 48.7295 130.284 49.8065 130.505C51.14 130.648 52.4849 130.373 53.6547 129.717C53.3849 131.251 52.7601 136.029 52.682 137.527C52.267 137.483 51.8497 137.465 51.4324 137.47C51.4253 137.066 51.2904 132.72 50.9425 132.692H50.9567ZM53.5695 129.035C52.6469 129.688 51.5399 130.029 50.41 130.008C49.8123 129.963 49.2303 129.796 48.7001 129.516C48.17 129.236 47.7032 128.85 47.3286 128.382C47.3286 128.162 47.2505 125.784 47.2718 124.506C49.5723 124.687 51.8815 124.732 54.1872 124.641C54.0736 125.265 53.7115 127.8 53.5553 129.035H53.5695Z" fill="black"/>
<path d="M124.25 37.3885C124.29 37.3804 124.326 37.3586 124.352 37.3269C124.378 37.2952 124.392 37.2555 124.392 37.2146C124.392 37.1736 124.378 37.134 124.352 37.1023C124.326 37.0706 124.29 37.0488 124.25 37.0406H123.057C114.132 37.3175 114.423 37.3104 114.431 37.5589C114.438 37.8074 114.161 37.8642 124.25 37.3885ZM124.548 39.0499C122.958 39.0499 116.738 39.1351 115.141 39.2629C115.085 39.2727 115.034 39.3018 114.997 39.3454C114.961 39.3889 114.94 39.4439 114.94 39.5008C114.94 39.5577 114.961 39.6127 114.997 39.6562C115.034 39.6997 115.085 39.7289 115.141 39.7386C116.766 39.7386 122.951 39.4191 124.555 39.3552C124.59 39.3469 124.621 39.3269 124.643 39.2986C124.664 39.2703 124.676 39.2354 124.675 39.1997C124.674 39.164 124.661 39.1297 124.638 39.1024C124.615 39.0752 124.583 39.0567 124.548 39.0499ZM122.986 41.6627C121.878 41.7053 118.321 41.6627 114.928 41.6627C114.852 41.6627 114.78 41.6927 114.727 41.7459C114.674 41.7992 114.644 41.8714 114.644 41.9467C114.644 42.0221 114.674 42.0943 114.727 42.1476C114.78 42.2008 114.852 42.2307 114.928 42.2307C115.638 42.2804 122.297 42.0035 122.993 41.9751C123.035 41.9742 123.074 41.9568 123.103 41.9269C123.131 41.8969 123.147 41.8568 123.146 41.8154C123.145 41.774 123.128 41.7346 123.098 41.706C123.068 41.6774 123.028 41.6618 122.986 41.6627ZM100.11 6.18404C99.2779 6.38836 98.5169 6.81455 97.908 7.4172C97.2991 8.01986 96.8651 8.7764 96.6522 9.60624C95.8641 12.6237 98.5976 15.911 101.743 15.3856C102.43 15.2405 103.081 14.9566 103.655 14.5513C104.228 14.1459 104.713 13.6277 105.08 13.0284C105.438 12.367 105.641 11.6329 105.675 10.8814C105.708 10.13 105.57 9.3808 105.272 8.69034C104.846 7.46914 103.582 5.51664 100.11 6.18404ZM101.828 12.1693C100.458 13.1136 98.8532 11.3954 99.4851 10.3375C100.621 8.44894 102.637 9.87604 102.687 10.586C102.686 10.9013 102.607 11.2113 102.455 11.4879C102.304 11.7644 102.086 11.9987 101.821 12.1693H101.828ZM101.743 8.93884C101.264 8.78806 100.748 8.80035 100.277 8.97377C99.8051 9.1472 99.4044 9.47198 99.1372 9.89734C98.9188 10.2803 98.8364 10.7259 98.9034 11.1616C98.9704 11.5973 99.183 11.9976 99.5064 12.2971C99.764 12.5445 100.081 12.7215 100.427 12.8114C100.772 12.9013 101.135 12.901 101.481 12.8105C101.826 12.72 102.143 12.5424 102.4 12.2947C102.657 12.0469 102.847 11.7373 102.95 11.3954C103.556 11.7928 104.234 12.0678 104.945 12.2048C104.694 12.8182 104.308 13.3674 103.817 13.8121C103.325 14.2569 102.74 14.5859 102.105 14.775C99.265 15.5986 96.7374 13.0213 97.0569 10.2381C97.1505 9.58993 97.3901 8.97146 97.7576 8.42939C98.1251 7.88732 98.611 7.43582 99.1785 7.10898C99.7461 6.78213 100.38 6.58848 101.034 6.54263C101.687 6.49679 102.342 6.59995 102.95 6.84434C102.388 7.43848 101.972 8.15568 101.736 8.93884H101.743Z" fill="black"/>
<path d="M93.7199 18.3748C95.4523 18.2825 127.175 18.0411 129.49 17.3524C131.272 17.0258 131.882 16.2022 131.79 14.4059C131.79 13.8095 131.89 6.97222 131.705 5.75812C131.542 4.26002 130.739 3.55002 129.05 3.45772C127.63 3.32282 94.721 3.83402 93.1661 4.16772C91.9023 4.41622 91.0361 4.87772 90.8657 6.29772C90.7876 6.73082 91.1284 14.7467 91.171 15.5277C91.2704 17.2175 92.1153 18.2186 93.7199 18.3748ZM96.4889 17.892C96.0708 17.8416 95.6692 17.6989 95.3131 17.4742C94.957 17.2495 94.6553 16.9484 94.4299 16.5927C93.9294 15.7308 93.6718 14.7493 93.6844 13.7527C93.6063 12.5457 93.3791 8.07272 93.3507 6.99352C93.3507 6.55332 93.3507 5.09072 94.4299 4.56532C96.0984 4.39492 127.182 3.93342 128.51 3.97602C129.22 3.97602 130.178 4.03282 130.718 4.57952C131.513 5.38182 131.258 6.70952 131.307 14.342C131.464 16.2874 130.725 16.7134 128.908 16.9761C127.275 17.2246 96.7729 17.892 96.5031 17.892H96.4889ZM92.8679 6.09182C92.7756 6.73082 93.1519 12.8368 93.1874 13.6462C93.2726 15.6555 93.8477 17.0826 94.9837 17.9062H94.2737C92.5413 17.9062 91.7532 17.0755 91.6751 15.3076C91.6325 14.2994 91.3059 6.78762 91.3769 6.36162C91.526 5.06942 92.3993 4.78542 93.5566 4.64342C93.1978 5.05172 92.9637 5.55442 92.8821 6.09182H92.8679Z" fill="black"/>
<path d="M109.624 7.93061C109.887 7.93061 118.038 7.72471 117.967 7.72471C118.003 7.71694 118.036 7.69684 118.06 7.66776C118.083 7.63868 118.096 7.60239 118.096 7.56496C118.096 7.52753 118.083 7.49123 118.06 7.46215C118.036 7.43307 118.003 7.41297 117.967 7.40521C117.363 7.40521 110.327 7.28451 109.61 7.40521C109.555 7.42502 109.508 7.46156 109.475 7.50963C109.443 7.55771 109.426 7.61488 109.427 7.67303C109.429 7.73118 109.449 7.78736 109.484 7.8336C109.519 7.87983 109.568 7.91378 109.624 7.93061ZM120.466 10.16C119.443 10.2594 109.177 9.91151 109.106 10.4298C109.106 10.5292 109.198 10.6073 109.269 10.6215C110.164 10.728 120.43 10.5079 120.501 10.5008C120.524 10.4985 120.545 10.4918 120.565 10.481C120.585 10.4703 120.602 10.4558 120.617 10.4383C120.631 10.4209 120.641 10.4008 120.648 10.3792C120.654 10.3577 120.656 10.335 120.654 10.3127C120.652 10.2903 120.645 10.2686 120.634 10.2488C120.624 10.229 120.609 10.2115 120.592 10.1974C120.574 10.1832 120.554 10.1726 120.532 10.1662C120.511 10.1598 120.488 10.1577 120.466 10.16ZM120.26 12.8864C118.506 12.8864 109.667 12.8438 109.205 12.9219C109.16 12.9339 109.12 12.9607 109.091 12.9979C109.062 13.0351 109.047 13.0808 109.047 13.1278C109.047 13.1748 109.062 13.2205 109.091 13.2577C109.12 13.295 109.16 13.3217 109.205 13.3337C109.695 13.4118 119.543 13.1846 120.267 13.1633C120.298 13.1554 120.326 13.1371 120.345 13.1114C120.365 13.0857 120.375 13.0542 120.374 13.022C120.373 12.9898 120.362 12.9589 120.341 12.9342C120.32 12.9096 120.292 12.8927 120.26 12.8864ZM19.8801 58.369C24.6868 57.9785 27.2357 51.7873 23.5011 48.3509C23.3662 48.2302 23.6218 47.9604 19.6884 53.6475C14.9314 49.139 15.187 49.3094 15.0805 49.3875C11.3175 53.1008 15.045 58.7666 19.8801 58.369Z" fill="black"/>
<path d="M19.3546 51.3189C19.4895 51.468 19.4256 51.4893 22.6419 46.0649C22.6497 46.0528 22.6549 46.0393 22.6573 46.0252C22.6596 46.0111 22.6592 45.9967 22.6559 45.9828C22.6525 45.9689 22.6465 45.9557 22.638 45.9442C22.6295 45.9327 22.6188 45.923 22.6064 45.9158C21.4722 45.3189 20.1728 45.1129 18.9096 45.3299C17.6464 45.5468 16.4901 46.1745 15.62 47.1157C15.5348 47.2222 15.407 47.0163 19.3546 51.3189ZM11.9351 77.6244C12.1172 77.6232 12.2949 77.5681 12.4458 77.4662C12.5967 77.3643 12.7141 77.22 12.7832 77.0515C12.8522 76.8829 12.8699 76.6978 12.834 76.5193C12.7981 76.3407 12.7101 76.1768 12.5812 76.0482C12.9362 75.4731 15.2366 71.6888 15.9111 70.6664C16.0859 70.7472 16.281 70.7735 16.471 70.7418C16.661 70.7102 16.837 70.622 16.9761 70.4889L20.2563 73.0165C20.2029 73.1747 20.1933 73.3445 20.2287 73.5077C20.2642 73.671 20.3432 73.8215 20.4575 73.9434C20.5718 74.0652 20.717 74.1538 20.8776 74.1996C21.0382 74.2454 21.2083 74.2468 21.3696 74.2035C21.531 74.1603 21.6776 74.0741 21.7938 73.9541C21.91 73.8341 21.9915 73.6848 22.0295 73.5222C22.0675 73.3595 22.0607 73.1896 22.0098 73.0305C21.9588 72.8714 21.8657 72.7292 21.7402 72.6189L22.9046 71.0853C23.113 71.1806 23.3493 71.1957 23.5681 71.1275C23.787 71.0594 23.9729 70.9129 24.0903 70.7161L27.4841 71.8663C27.4658 72.019 27.4859 72.1739 27.5427 72.3168C27.5994 72.4598 27.691 72.5863 27.8091 72.6849C27.9271 72.7834 28.068 72.8509 28.2188 72.8812C28.3696 72.9115 28.5256 72.9036 28.6725 72.8583C28.8195 72.813 28.9529 72.7317 29.0604 72.6217C29.168 72.5117 29.2463 72.3766 29.2884 72.2287C29.3304 72.0807 29.3349 71.9246 29.3012 71.7745C29.2676 71.6244 29.197 71.4851 29.0958 71.3693C29.3798 70.354 31.8364 62.8493 32.0849 62.1393C32.3234 62.1185 32.5446 62.0066 32.7026 61.8269C33.3771 62.3594 35.4006 63.8717 36.0538 64.3119C36.0165 64.4588 36.016 64.6127 36.0523 64.7599C36.0885 64.9071 36.1605 65.0432 36.2619 65.1559C36.3632 65.2687 36.4908 65.3548 36.6333 65.4066C36.7758 65.4584 36.9289 65.4742 37.079 65.4528C37.2291 65.4313 37.3716 65.3732 37.4939 65.2836C37.6162 65.194 37.7146 65.0757 37.7803 64.939C37.846 64.8024 37.877 64.6516 37.8706 64.5002C37.8642 64.3487 37.8206 64.2011 37.7436 64.0705C39.6322 61.0601 39.7174 61.1098 39.5186 60.9749C39.4813 60.9517 39.4366 60.9432 39.3933 60.951C39.35 60.9589 39.3112 60.9826 39.2843 61.0175C38.9506 61.5003 37.3744 63.7155 37.3744 63.7155C37.2065 63.6328 37.0179 63.6015 36.8322 63.6255C36.6466 63.6495 36.4721 63.7277 36.3307 63.8504C35.6704 63.3889 33.5759 61.8908 32.9085 61.3725C32.9371 61.2086 32.9208 61.0401 32.8614 60.8847C32.802 60.7294 32.7018 60.593 32.5713 60.4899C32.4408 60.3868 32.2848 60.3209 32.12 60.2991C31.9551 60.2774 31.7874 60.3006 31.6346 60.3663C31.4818 60.432 31.3496 60.5377 31.252 60.6724C31.1544 60.807 31.0949 60.9655 31.08 61.1312C31.065 61.2968 31.0951 61.4634 31.167 61.6133C31.2389 61.7633 31.35 61.891 31.4885 61.9831C30.8779 63.6445 29.1029 69.3955 28.6485 71.0711C28.4779 71.027 28.2984 71.0317 28.1303 71.0844C27.9621 71.1371 27.8121 71.2357 27.6971 71.3693C26.9871 71.1279 24.8571 70.4818 24.211 70.2759C24.211 70.0329 24.1145 69.8 23.9428 69.6282C23.771 69.4565 23.5381 69.36 23.2951 69.36C23.0522 69.36 22.8193 69.4565 22.6475 69.6282C22.4757 69.8 22.3792 70.0329 22.3792 70.2759C22.3808 70.4786 22.448 70.6755 22.5709 70.8368L21.3 72.4201C21.1783 72.3934 21.0524 72.3922 20.9302 72.4167C20.808 72.4411 20.6922 72.4906 20.59 72.5621L17.2033 69.999C17.2403 69.7792 17.1959 69.5535 17.0783 69.3641C16.9608 69.1747 16.7783 69.0347 16.565 68.9703C16.3516 68.9058 16.1221 68.9214 15.9194 69.014C15.7167 69.1067 15.5547 69.2701 15.4638 69.4736C15.3932 69.6199 15.3645 69.7829 15.3808 69.9445C15.397 70.1062 15.4577 70.2602 15.5561 70.3895C14.8887 71.3906 12.4676 75.2601 12.1197 75.821C11.9923 75.7889 11.8595 75.7847 11.7303 75.8086C11.6011 75.8325 11.4785 75.8838 11.3709 75.9593C11.2633 76.0347 11.1732 76.1324 11.1067 76.2457C11.0402 76.359 10.9989 76.4853 10.9855 76.616C10.9721 76.7467 10.987 76.8788 11.0292 77.0032C11.0713 77.1276 11.1398 77.2416 11.2299 77.3372C11.32 77.4329 11.4296 77.508 11.5513 77.5575C11.6729 77.6071 11.8039 77.6299 11.9351 77.6244ZM24.2891 80.1378C24.2364 80.1378 24.1859 80.1587 24.1486 80.196C24.1113 80.2333 24.0903 80.2838 24.0903 80.3366C24.0903 80.3893 24.1113 80.4398 24.1486 80.4771C24.1859 80.5144 24.2364 80.5354 24.2891 80.5354C25.5316 80.5354 40.115 79.9674 40.6191 79.9603C40.6523 79.9529 40.6819 79.9345 40.7031 79.908C40.7243 79.8815 40.7359 79.8486 40.7359 79.8147C40.7359 79.7808 40.7243 79.7479 40.7031 79.7214C40.6819 79.6949 40.6523 79.6765 40.6191 79.6692C38.6382 79.6763 25.56 79.9958 24.2891 80.1378ZM30.53 75.0613C30.5752 75.0613 30.6186 75.0433 30.6505 75.0113C30.6825 74.9794 30.7004 74.9361 30.7004 74.8909C30.7004 74.8457 30.6825 74.8023 30.6505 74.7704C30.6186 74.7384 30.5752 74.7205 30.53 74.7205C29.9691 74.7205 27.9385 74.5998 27.4628 74.6211C27.38 74.6211 27.3005 74.654 27.2419 74.7126C27.1834 74.7711 27.1504 74.8506 27.1504 74.9335C27.1504 75.0163 27.1834 75.0958 27.2419 75.1544C27.3005 75.2129 27.38 75.2459 27.4628 75.2459C27.9314 75.3027 29.9407 75.111 30.53 75.0613ZM22.9401 75.9701H19.88C19.8139 75.9732 19.7498 75.994 19.6944 76.0304C19.6391 76.0668 19.5945 76.1174 19.5655 76.177C19.5365 76.2365 19.524 76.3028 19.5293 76.3688C19.5347 76.4348 19.5578 76.4982 19.596 76.5523C19.7877 76.8363 19.9368 76.6162 22.9543 76.3606C22.9918 76.3427 23.0232 76.3142 23.0447 76.2787C23.0662 76.2432 23.0768 76.2021 23.0753 76.1606C23.0738 76.1192 23.0602 76.079 23.0362 76.0452C23.0122 76.0113 22.9788 75.9852 22.9401 75.9701ZM10.8346 79.7615C10.9837 79.7615 13.1421 79.5272 13.6178 79.5059C13.6706 79.5059 13.7211 79.4849 13.7584 79.4476C13.7957 79.4103 13.8166 79.3598 13.8166 79.3071C13.8166 79.2543 13.7957 79.2038 13.7584 79.1665C13.7211 79.1292 13.6706 79.1083 13.6178 79.1083C13.3409 79.1083 10.9411 79.2077 10.7778 79.2858C10.7345 79.3118 10.6996 79.3499 10.6774 79.3954C10.6551 79.4408 10.6465 79.4917 10.6525 79.542C10.6585 79.5922 10.6789 79.6396 10.7112 79.6786C10.7435 79.7175 10.7864 79.7463 10.8346 79.7615Z" fill="black"/>
<path d="M35.8906 67.4499H36.0042C39.0217 67.1801 38.9152 67.386 39.043 67.244C39.0666 67.2162 39.0821 67.1824 39.0878 67.1463C39.0934 67.1103 39.089 67.0734 39.0751 67.0396C39.0612 67.0059 39.0382 66.9766 39.0088 66.9551C38.9793 66.9335 38.9445 66.9205 38.9081 66.9174C37.8502 66.9174 36.8562 66.8251 35.9048 66.8677C35.5001 66.8748 35.5356 67.4499 35.8906 67.4499ZM20.015 61.2516C19.9378 61.2516 19.8638 61.2823 19.8092 61.3369C19.7546 61.3915 19.7239 61.4655 19.7239 61.5427C19.7239 61.6199 19.7546 61.694 19.8092 61.7486C19.8638 61.8032 19.9378 61.8338 20.015 61.8338C21.0303 61.8338 24.985 61.4717 25.9435 61.3723C25.9889 61.3636 26.0299 61.3394 26.0594 61.3037C26.0888 61.2681 26.1049 61.2233 26.1049 61.1771C26.1049 61.1308 26.0888 61.0861 26.0594 61.0504C26.0299 61.0148 25.9889 60.9905 25.9435 60.9818C24.9566 61.0599 20.9948 61.1664 20.015 61.2516ZM19.5322 62.913C19.4751 62.9272 19.4251 62.9617 19.3917 63.0101C19.3583 63.0586 19.3437 63.1175 19.3506 63.176C19.3576 63.2344 19.3857 63.2882 19.4296 63.3274C19.4735 63.3666 19.5302 63.3884 19.589 63.3887C20.7108 63.3887 25.1128 62.9911 26.2204 62.984C26.2694 62.984 26.3163 62.9646 26.351 62.93C26.3856 62.8953 26.405 62.8484 26.405 62.7994C26.405 62.7505 26.3856 62.7035 26.351 62.6689C26.3163 62.6343 26.2694 62.6148 26.2204 62.6148C23.9869 62.5657 21.7525 62.6653 19.5322 62.913ZM25.6524 64.049C23.7944 64.0223 21.9362 64.0957 20.086 64.2691C19.7452 64.3117 19.731 64.83 20.086 64.83C20.7179 64.83 24.1685 64.475 25.6595 64.4182C25.6838 64.4178 25.7077 64.4125 25.7299 64.4028C25.7521 64.3931 25.7722 64.3791 25.789 64.3617C25.8058 64.3442 25.819 64.3236 25.8279 64.301C25.8367 64.2784 25.8411 64.2543 25.8406 64.2301C25.8401 64.2058 25.8349 64.1819 25.8252 64.1597C25.8155 64.1375 25.8015 64.1174 25.784 64.1006C25.7665 64.0838 25.7459 64.0706 25.7233 64.0617C25.7008 64.0529 25.6767 64.0486 25.6524 64.049ZM27.9883 48.7556C28.3362 48.7556 31.8791 48.3864 32.5749 48.3367C32.6239 48.3367 32.6708 48.3173 32.7055 48.2827C32.7401 48.248 32.7595 48.2011 32.7595 48.1521C32.7595 48.1032 32.7401 48.0562 32.7055 48.0216C32.6708 47.987 32.6239 47.9675 32.5749 47.9675C32.227 47.9675 28.4285 48.0811 28.0096 48.1095C27.5907 48.1379 27.5907 48.7556 27.9883 48.7556ZM28.7196 50.1898C29.8343 50.1898 34.1795 49.778 35.28 49.707C35.3202 49.6989 35.3562 49.6771 35.3821 49.6454C35.4081 49.6137 35.4222 49.574 35.4222 49.5331C35.4222 49.4921 35.4081 49.4525 35.3821 49.4208C35.3562 49.389 35.3202 49.3673 35.28 49.3591C34.1724 49.4088 29.7988 49.4301 28.7125 49.5437C28.6352 49.5561 28.5649 49.5958 28.5144 49.6556C28.4638 49.7155 28.4365 49.7915 28.4374 49.8698C28.4383 49.9482 28.4672 50.0236 28.519 50.0823C28.5708 50.141 28.642 50.1792 28.7196 50.1898Z" fill="black"/>
</svg>
